<?xml version="1.0" encoding="UTF-8"?>
<svg width="24px" height="24px" viewBox="0 0 24 24" version="1.1" xmlns="http://www.w3.org/2000/svg" xmlns:xlink="http://www.w3.org/1999/xlink">
    <!-- Generator: Sketch 52.4 (67378) - http://www.bohemiancoding.com/sketch -->
    <title>icon_关怀</title>
    <desc>Created with Sketch.</desc>
    <g id="微分销2.8" stroke="none" stroke-width="1" fill="none" fill-rule="evenodd">
        <g id="首页-分销员登录" transform="translate(-317.000000, -213.000000)">
            <g id="操作面板" transform="translate(0.000000, 201.000000)">
                <g id="分组-2">
                    <g id="icon_关怀" transform="translate(317.000000, 12.000000)">
                        <rect id="矩形" fill="#FFFFFF" fill-rule="nonzero" x="0" y="0" width="24" height="24"></rect>
                        <path d="M3.75,8 C3.336,8 3,7.6645 3,7.25 L3,4.5 L3,3.75 C3,3.3355 3.336,3 3.75,3 L4.5,3 L7.25,3 C7.664,3 8,3.3355 8,3.75 C8,4.1645 7.664,4.5 7.25,4.5 L5.25,4.5 C4.836,4.5 4.5,4.8355 4.5,5.25 L4.5,7.25 C4.5,7.6645 4.164,8 3.75,8 Z M20.25,3 C20.664,3 21,3.3355 21,3.75 L21,4.5 L21,7.25 C21,7.6645 20.664,8 20.25,8 C19.836,8 19.5,7.6645 19.5,7.25 L19.5,5.25 C19.5,4.8355 19.164,4.5 18.75,4.5 L16.75,4.5 C16.336,4.5 16,4.1645 16,3.75 C16,3.3355 16.336,3 16.75,3 L19.5,3 L20.25,3 Z M7.25,19.5 C7.664,19.5 8,19.836 8,20.25 C8,20.664 7.664,21 7.25,21 L4.5,21 L3.75,21 C3.336,21 3,20.664 3,20.25 L3,19.5 L3,16.75 C3,16.336 3.336,16 3.75,16 C4.164,16 4.5,16.336 4.5,16.75 L4.5,18.75 C4.5,19.164 4.836,19.5 5.25,19.5 L7.25,19.5 Z M20.25,16 C20.664,16 21,16.336 21,16.75 L21,19.5 L21,20.25 C21,20.664 20.664,21 20.25,21 L19.5,21 L16.75,21 C16.336,21 16,20.664 16,20.25 C16,19.836 16.336,19.5 16.75,19.5 L18.75,19.5 C19.164,19.5 19.5,19.164 19.5,18.75 L19.5,16.75 C19.5,16.336 19.836,16 20.25,16 Z M16,12.0498 C16.454,11.6833 16.75,11.1288 16.75,10.4998 C16.75,9.3953 15.8545,8.4998 14.75,8.4998 C13.6455,8.4998 12.75,9.3953 12.75,10.4998 C12.75,10.9143 12.414,11.2498 12,11.2498 C11.586,11.2498 11.25,10.9143 11.25,10.4998 C11.25,9.3953 10.3545,8.4998 9.25,8.4998 C8.1455,8.4998 7.25,9.3953 7.25,10.4998 C7.25,11.1288 7.546,11.6833 8,12.0498 L8,12.0643 L12.0125,16.0773 L16,12.0898 L16,12.0498 Z M17.469,12.6858 C17.436,12.7443 17.4065,12.8048 17.3575,12.8538 L12.6035,17.6073 C12.3755,17.8353 12.04,17.8808 11.7635,17.7543 C11.6225,17.7268 11.486,17.6718 11.377,17.5623 L6.806,12.9923 C6.1575,12.3578 5.75,11.4793 5.75,10.4998 C5.75,8.5668 7.317,6.9998 9.25,6.9998 C10.3665,6.9998 11.3595,7.5248 12,8.3398 C12.6405,7.5248 13.6335,6.9998 14.75,6.9998 C16.683,6.9998 18.25,8.5668 18.25,10.4998 C18.25,11.3308 17.9525,12.0868 17.469,12.6858 Z" id="合并形状" fill="#4B4B4B"></path>
                    </g>
                </g>
            </g>
        </g>
    </g>
</svg>