<?xml version="1.0" encoding="UTF-8"?>
<svg width="24px" height="24px" viewBox="0 0 24 24" version="1.1" xmlns="http://www.w3.org/2000/svg" xmlns:xlink="http://www.w3.org/1999/xlink">
    <!-- Generator: Sketch 52.4 (67378) - http://www.bohemiancoding.com/sketch -->
    <title>icon_fans</title>
    <desc>Created with Sketch.</desc>
    <g id="微分销2.8" stroke="none" stroke-width="1" fill="none" fill-rule="evenodd">
        <g id="首页-分销员登录" transform="translate(-35.000000, -283.000000)">
            <g id="操作面板" transform="translate(0.000000, 201.000000)">
                <g id="分组-2">
                    <g id="icon_fans" transform="translate(35.000000, 82.000000)">
                        <rect id="矩形" fill="#FFFFFF" fill-rule="nonzero" x="0" y="0" width="24" height="24"></rect>
                        <path d="M20.645649,7.57061166 C20.5121043,7.43523209 20.42965,7.24928433 20.42965,7.04395 C20.42965,6.62995 20.76565,6.29395 21.17965,6.29395 C21.59365,6.29395 21.92965,6.62995 21.92965,7.04395 C21.92965,7.45845 21.59365,7.79395 21.17965,7.79395 C21.0005067,7.79395 20.8359681,7.7311307 20.706938,7.62627415 C20.7506975,7.67070401 20.7895781,7.72135259 20.8222,7.77785 C20.8672,7.85585 20.8937,7.93885 20.9087,8.02235 C20.9312,8.13285 20.9322,8.24985 20.9007,8.36635 L19.0692,15.20285 C18.9617,15.60235 18.5507,15.83985 18.1507,15.73285 C17.7502,15.62535 17.5132,15.21435 17.6207,14.81385 L18.9902,9.70135 L16.4637,11.16035 C16.2767,11.26785 16.0632,11.28485 15.8722,11.22685 C15.8512,11.22085 15.8307,11.21135 15.8102,11.20385 C15.7912,11.19635 15.7722,11.19085 15.7547,11.18185 C15.6592,11.13735 15.5707,11.07335 15.4987,10.98685 L11.9182,6.72035 L8.4022,10.91035 C8.1842,11.23335 7.7517,11.33935 7.4092,11.14135 L4.9022,9.69385 L6.7952,16.76035 L17.6862,16.76035 C18.1002,16.76035 18.4362,17.09635 18.4362,17.51035 C18.4362,17.92435 18.1002,18.26035 17.6862,18.26035 L6.2137,18.26035 C5.8412,18.26035 5.5347,17.98785 5.4762,17.63185 L2.9937,8.36635 C2.9652,8.26085 2.9617,8.15535 2.9782,8.05435 C2.9902,7.95785 3.0212,7.86185 3.0732,7.77185 C3.1067,7.71385 3.1487,7.66435 3.1942,7.61885 C3.0697,7.71135 2.9167,7.76735 2.7497,7.76735 C2.3357,7.76735 1.9997,7.43185 1.9997,7.01735 C1.9997,6.60335 2.3357,6.26735 2.7497,6.26735 C3.1642,6.26735 3.4997,6.60335 3.4997,7.01735 C3.4997,7.21935 3.4192,7.40235 3.2897,7.53685 C3.5207,7.37285 3.8357,7.34635 4.0977,7.49735 L7.6072,9.52385 L11.2167,5.22285 C11.3472,5.06735 11.5277,4.97885 11.7152,4.95985 C11.4157,4.86135 11.1972,4.58285 11.1972,4.24985 C11.1972,3.83585 11.5332,3.49985 11.9472,3.49985 C12.3612,3.49985 12.6972,3.83585 12.6972,4.24985 C12.6972,4.60285 12.4527,4.89685 12.1242,4.97635 C12.3162,4.99285 12.5017,5.08235 12.6357,5.24185 L16.2512,9.55085 L19.7977,7.50335 C20.0745246,7.34350988 20.4112726,7.3804334 20.645649,7.57061166 Z M17.6972,19.75 C18.1112,19.75 18.4472,20.086 18.4472,20.5 C18.4472,20.914 18.1112,21.25 17.6972,21.25 L6.1972,21.25 C5.7832,21.25 5.4472,20.914 5.4472,20.5 C5.4472,20.086 5.7832,19.75 6.1972,19.75 L17.6972,19.75 Z" id="合并形状" fill="#4B4B4B"></path>
                    </g>
                </g>
            </g>
        </g>
    </g>
</svg>