<?xml version="1.0" encoding="UTF-8"?>
<svg width="24px" height="24px" viewBox="0 0 24 24" version="1.1" xmlns="http://www.w3.org/2000/svg" xmlns:xlink="http://www.w3.org/1999/xlink">
    <!-- Generator: Sketch 52.4 (67378) - http://www.bohemiancoding.com/sketch -->
    <title>icon_素材</title>
    <desc>Created with Sketch.</desc>
    <g id="微分销2.8" stroke="none" stroke-width="1" fill="none" fill-rule="evenodd">
        <g id="首页-分销员登录" transform="translate(-35.000000, -283.000000)">
            <g id="操作面板" transform="translate(0.000000, 201.000000)">
                <g id="分组-2">
                    <g id="icon_素材" transform="translate(35.000000, 82.000000)">
                        <rect id="矩形" fill="#FFFFFF" fill-rule="nonzero" x="0" y="0" width="24" height="24"></rect>
                        <g id="分组" transform="translate(3.000000, 3.000000)" fill="#4B4B4B">
                            <path d="M3.5,4.5 C3.5,3.948 3.948,3.5 4.5,3.5 C5.052,3.5 5.5,3.948 5.5,4.5 C5.5,5.052 5.052,5.5 4.5,5.5 C3.948,5.5 3.5,5.052 3.5,4.5 Z M11.76365,4.29785 C11.34965,4.30535 11.00765,3.97485 11.00065,3.56085 C10.99315,3.14685 11.32315,2.80535 11.73715,2.79785 L13.73665,2.76335 L13.70215,0.76385 C13.69465,0.34935 14.02465,0.00785 14.43915,0.00035 C14.85315,-0.00665 15.19465,0.32335 15.20215,0.73735 L15.23665,2.73685 L17.23615,2.70235 C17.65015,2.69485 17.99215,3.02485 17.99965,3.43885 C18.00665,3.85285 17.67665,4.19485 17.26265,4.20185 L15.26315,4.23685 L15.29765,6.23635 C15.30515,6.65035 14.97515,6.99235 14.56115,6.99935 C14.14715,7.00685 13.80515,6.67685 13.79765,6.26285 L13.76315,4.26335 L11.76365,4.29785 Z M17.25,7.5 C17.664,7.5 18,7.836 18,8.25 L18,16 C18,17.1045 17.1045,18 16,18 L2,18 C0.8955,18 0,17.1045 0,16 L0,2 C0,0.8955 0.8955,0 2,0 L9.75,0 C10.164,0 10.5,0.336 10.5,0.75 C10.5,1.164 10.164,1.5 9.75,1.5 L2.5,1.5 C1.948,1.5 1.5,1.948 1.5,2.5 L1.5,10.35 L3.8935,7.0585 C4.18,6.6645 4.7605,6.644 5.074,7.0175 L7.972,10.4675 L10.2195,8.2195 C10.5125,7.927 10.9875,7.927 11.2805,8.2195 L15.75,12.6895 C16.043,12.9825 16.043,13.457 15.75,13.75 C15.457,14.043 14.9825,14.043 14.6895,13.75 L11.2805,10.341 C10.9875,10.048 10.5125,10.048 10.2195,10.341 L8.9405,11.62 L9.842,12.6935 C10.1085,13.0105 10.0675,13.4835 9.75,13.75 C9.4325,14.0165 8.96,13.9755 8.6935,13.658 L5.159,9.4505 C4.8455,9.0775 4.265,9.098 3.9785,9.492 L1.5475,12.8345 C1.533,12.8545 1.5155,12.87 1.5,12.8875 L1.5,15.5 C1.5,16.052 1.948,16.5 2.5,16.5 L15.5,16.5 C16.052,16.5 16.5,16.052 16.5,15.5 L16.5,8.25 C16.5,7.836 16.836,7.5 17.25,7.5 Z" id="合并形状"></path>
                        </g>
                    </g>
                </g>
            </g>
        </g>
    </g>
</svg>