<?xml version="1.0" encoding="UTF-8"?>
<svg width="24px" height="24px" viewBox="0 0 24 24" version="1.1" xmlns="http://www.w3.org/2000/svg" xmlns:xlink="http://www.w3.org/1999/xlink">
    <!-- Generator: Sketch 52.4 (67378) - http://www.bohemiancoding.com/sketch -->
    <title>icon_微店</title>
    <desc>Created with Sketch.</desc>
    <g id="微分销2.8" stroke="none" stroke-width="1" fill="none" fill-rule="evenodd">
        <g id="首页-分销员登录" transform="translate(-223.000000, -213.000000)">
            <g id="操作面板" transform="translate(0.000000, 201.000000)">
                <g id="分组-2">
                    <g id="icon_微店" transform="translate(223.000000, 12.000000)">
                        <rect id="矩形" fill="#FFFFFF" fill-rule="nonzero" x="0" y="0" width="24" height="24"></rect>
                        <path d="M19.5,9 L19.5,4.5 L15.5,4.5 L15.5,9 C15.5,10.1045 16.3955,11 17.5,11 C18.6045,11 19.5,10.1045 19.5,9 Z M14,9 L14,4.5 L10,4.5 L10,9 C10,10.1045 10.8955,11 12,11 C13.1045,11 14,10.1045 14,9 Z M8.5,9 L8.5,4.5 L4.5,4.5 L4.5,9 C4.5,10.1045 5.3955,11 6.5,11 C7.6045,11 8.5,10.1045 8.5,9 Z M15.5,3 L21,3 L21,9 C21,10.933 19.433,12.5 17.5,12.5 C16.3835,12.5 15.3905,11.975 14.75,11.1605 C14.1095,11.975 13.1165,12.5 12,12.5 C10.8835,12.5 9.8905,11.975 9.25,11.1605 C8.6095,11.975 7.6165,12.5 6.5,12.5 C4.567,12.5 3,10.933 3,9 L3,3 L8.5,3 L10,3 L14,3 L15.5,3 Z M14,19.5 L14,16.25 C14,15.836 13.664,15.5 13.25,15.5 L10.75,15.5 C10.336,15.5 10,15.836 10,16.25 L10,19.5 L14,19.5 Z M20.25,14 C20.664,14 21,14.336 21,14.75 L21,20.25 C21,20.664 20.664,21 20.25,21 L3.75,21 C3.336,21 3,20.664 3,20.25 L3,14.75 C3,14.336 3.336,14 3.75,14 C4.164,14 4.5,14.336 4.5,14.75 L4.5,18.75 C4.5,19.164 4.836,19.5 5.25,19.5 L8.5,19.5 L8.5,14.75 C8.5,14.336 8.836,14 9.25,14 L14.75,14 C15.164,14 15.5,14.336 15.5,14.75 L15.5,19.5 L18.75,19.5 C19.164,19.5 19.5,19.164 19.5,18.75 L19.5,14.75 C19.5,14.336 19.836,14 20.25,14 Z" id="合并形状" fill="#4B4B4B"></path>
                    </g>
                </g>
            </g>
        </g>
    </g>
</svg>