<?xml version="1.0" encoding="UTF-8"?>
<svg width="10px" height="10px" viewBox="0 0 10 10" version="1.1" xmlns="http://www.w3.org/2000/svg" xmlns:xlink="http://www.w3.org/1999/xlink">
    <!-- Generator: Sketch 52.4 (67378) - http://www.bohemiancoding.com/sketch -->
    <title>合并形状</title>
    <desc>Created with Sketch.</desc>
    <g id="微分销2.5" stroke="none" stroke-width="1" fill="none" fill-rule="evenodd">
        <g id="增加-快速收获-爆款热卖-添加小程序提示" transform="translate(-345.000000, -73.000000)" fill="#FFFFFF" fill-rule="nonzero">
            <g id="分组-3" transform="translate(127.000000, 55.000000)">
                <path d="M223.800911,23 L227.805464,27.0045535 C228.02663,27.2257189 228.02663,27.5842988 227.805464,27.8054642 C227.584299,28.0266296 227.225719,28.0266296 227.004554,27.8054642 L223,23.8009107 L218.995446,27.8054642 C218.774281,28.0266296 218.415701,28.0266296 218.194536,27.8054642 C217.97337,27.5842988 217.97337,27.2257189 218.194536,27.0045535 L222.199089,23 L218.194536,18.9954465 C217.97337,18.7742811 217.97337,18.4157012 218.194536,18.1945358 C218.415701,17.9733704 218.774281,17.9733704 218.995446,18.1945358 L223,22.1990893 L227.004554,18.1945358 C227.225719,17.9733704 227.584299,17.9733704 227.805464,18.1945358 C228.02663,18.4157012 228.02663,18.7742811 227.805464,18.9954465 L223.800911,23 Z" id="合并形状"></path>
            </g>
        </g>
    </g>
</svg>