<?xml version="1.0" encoding="UTF-8"?>
<svg width="30px" height="30px" viewBox="0 0 30 30" version="1.1" xmlns="http://www.w3.org/2000/svg" xmlns:xlink="http://www.w3.org/1999/xlink">
    <!-- Generator: Sketch 52.4 (67378) - http://www.bohemiancoding.com/sketch -->
    <title>形状</title>
    <desc>Created with Sketch.</desc>
    <g id="微分销2.4" stroke="none" stroke-width="1" fill="none" fill-rule="evenodd">
        <g id="组货海报-" transform="translate(-330.000000, -79.000000)" fill="#000000" fill-rule="nonzero">
            <path d="M355.626959,83.3730408 C349.796238,77.5423197 340.203762,77.5423197 334.373041,83.3730408 C328.54232,89.2037618 328.54232,98.7962382 334.373041,104.626959 C340.203762,110.45768 349.796238,110.45768 355.626959,104.626959 C361.45768,98.7962382 361.45768,89.3918495 355.626959,83.3730408 Z M349.60815,100.112853 L344.905956,95.4106583 L340.203762,100.112853 C339.827586,100.489028 339.263323,100.489028 338.887147,100.112853 C338.510972,99.7366771 338.510972,99.1724138 338.887147,98.7962382 L343.589342,94.0940439 L338.887147,89.3918495 C338.510972,89.015674 338.510972,88.4514107 338.887147,88.0752351 C339.263323,87.6990596 339.827586,87.6990596 340.203762,88.0752351 L344.905956,92.7774295 L349.60815,88.0752351 C349.984326,87.6990596 350.548589,87.6990596 350.924765,88.0752351 C351.30094,88.4514107 351.30094,89.015674 350.924765,89.3918495 L346.222571,94.0940439 L350.924765,98.7962382 C351.30094,99.1724138 351.30094,99.7366771 350.924765,100.112853 C350.548589,100.489028 349.984326,100.489028 349.60815,100.112853 Z" id="形状"></path>
        </g>
    </g>
</svg>